<mxfile host="Electron" modified="2024-05-07T10:52:01.801Z" agent="Mozilla/5.0 (Windows NT 10.0; Win64; x64) AppleWebKit/537.36 (KHTML, like Gecko) draw.io/22.1.16 Chrome/120.0.6099.109 Electron/28.1.0 Safari/537.36" etag="A_drFpMeSgAYGgVb2K7V" version="22.1.16" type="device">
  <diagram name="第 1 页" id="m0UVuHAetMMKLSr2sfN5">
    <mxGraphModel dx="1088" dy="741" grid="1" gridSize="10" guides="0" tooltips="1" connect="0" arrows="1" fold="1" page="1" pageScale="1" pageWidth="3300" pageHeight="4681" background="none" math="0" shadow="0">
      <root>
        <object label="" 锁="&lt;svg t=&quot;1704634389176&quot; class=&quot;icon&quot; viewBox=&quot;0 0 1024 1024&quot; version=&quot;1.1&quot; xmlns=&quot;http://www.w3.org/2000/svg&quot; p-id=&quot;4264&quot; width=&quot;200&quot; height=&quot;200&quot;&gt;&lt;path d=&quot;M385.150849 385.662338l-128.895105 0 0-150.377622q0-49.102897 19.436563-91.556444t53.706294-74.677323 80.815185-50.637363 101.786214-18.413586q49.102897 0 94.625375 18.413586t80.815185 50.637363 56.263736 74.677323 20.971029 91.556444l0 150.377622-123.78022 0 0-121.734266q0-64.447552-35.804196-99.74026t-97.182817-35.292707q-55.240759 0-88.999001 35.292707t-33.758242 99.74026l0 121.734266zM826.053946 447.040959q27.62038 0 47.568432 19.948052t19.948052 47.568432l0 317.122877q0 27.62038-9.718282 51.66034t-26.597403 41.942058-39.896104 28.131868-50.637363 10.22977l-516.603397 0q-27.62038 0-50.125874-10.22977t-38.361638-27.108891-24.551449-39.384615-8.695305-48.07992l0-324.283716q0-27.62038 19.436563-47.568432t47.056943-19.948052l61.378621 0 128.895105 0 255.744256 0 123.78022 0 61.378621 0z&quot; p-id=&quot;4265&quot; data-spm-anchor-id=&quot;a313x.search_index.0.i2.64f33a81dm5s3x&quot; class=&quot;&quot;&gt;&lt;/path&gt;&lt;/svg&gt;" id="0">
          <mxCell />
        </object>
        <mxCell id="1" parent="0" />
        <mxCell id="44lf9Ctf_OpmYabO1S7V-36" style="edgeStyle=orthogonalEdgeStyle;rounded=1;orthogonalLoop=1;jettySize=auto;html=1;exitX=0.5;exitY=1;exitDx=0;exitDy=0;" parent="1" source="44lf9Ctf_OpmYabO1S7V-2" edge="1">
          <mxGeometry relative="1" as="geometry">
            <mxPoint x="282" y="550" as="targetPoint" />
          </mxGeometry>
        </mxCell>
        <mxCell id="44lf9Ctf_OpmYabO1S7V-2" value="" style="rounded=1;whiteSpace=wrap;html=1;fillColor=#d5e8d4;strokeColor=#82b366;" parent="1" vertex="1">
          <mxGeometry x="222" y="190" width="120" height="170" as="geometry" />
        </mxCell>
        <mxCell id="44lf9Ctf_OpmYabO1S7V-4" value="&lt;font style=&quot;font-size: 17px;&quot;&gt;中文&lt;/font&gt;" style="text;html=1;strokeColor=none;fillColor=none;align=center;verticalAlign=middle;whiteSpace=wrap;rounded=1;" parent="1" vertex="1">
          <mxGeometry x="329" y="50" width="60" height="30" as="geometry" />
        </mxCell>
        <mxCell id="44lf9Ctf_OpmYabO1S7V-18" value="mlp_before" style="rounded=1;whiteSpace=wrap;html=1;" parent="1" vertex="1">
          <mxGeometry x="239.5" y="260" width="40.5" height="30" as="geometry" />
        </mxCell>
        <mxCell id="44lf9Ctf_OpmYabO1S7V-20" value="zi" style="rounded=1;whiteSpace=wrap;html=1;" parent="1" vertex="1">
          <mxGeometry x="280" y="260" width="44.5" height="30" as="geometry" />
        </mxCell>
        <mxCell id="44lf9Ctf_OpmYabO1S7V-21" value="mlp_after" style="rounded=1;whiteSpace=wrap;html=1;" parent="1" vertex="1">
          <mxGeometry x="239.5" y="320" width="85" height="30" as="geometry" />
        </mxCell>
        <mxCell id="44lf9Ctf_OpmYabO1S7V-23" value="encoder" style="rounded=1;whiteSpace=wrap;html=1;" parent="1" vertex="1">
          <mxGeometry x="232" y="200" width="100" height="40" as="geometry" />
        </mxCell>
        <mxCell id="44lf9Ctf_OpmYabO1S7V-40" style="edgeStyle=orthogonalEdgeStyle;rounded=1;orthogonalLoop=1;jettySize=auto;html=1;entryX=0.5;entryY=0;entryDx=0;entryDy=0;" parent="1" edge="1">
          <mxGeometry relative="1" as="geometry">
            <mxPoint x="740" y="90" as="sourcePoint" />
            <mxPoint x="740" y="190" as="targetPoint" />
          </mxGeometry>
        </mxCell>
        <mxCell id="44lf9Ctf_OpmYabO1S7V-37" value="&lt;font style=&quot;font-size: 17px;&quot;&gt;英文&lt;/font&gt;" style="text;html=1;strokeColor=none;fillColor=none;align=center;verticalAlign=middle;whiteSpace=wrap;rounded=1;" parent="1" vertex="1">
          <mxGeometry x="710" y="50" width="60" height="30" as="geometry" />
        </mxCell>
        <mxCell id="44lf9Ctf_OpmYabO1S7V-41" style="edgeStyle=orthogonalEdgeStyle;rounded=1;orthogonalLoop=1;jettySize=auto;html=1;" parent="1" source="44lf9Ctf_OpmYabO1S7V-38" edge="1">
          <mxGeometry relative="1" as="geometry">
            <mxPoint x="737" y="550" as="targetPoint" />
          </mxGeometry>
        </mxCell>
        <mxCell id="44lf9Ctf_OpmYabO1S7V-38" value="" style="rounded=1;whiteSpace=wrap;html=1;fillColor=#d5e8d4;strokeColor=#82b366;" parent="1" vertex="1">
          <mxGeometry x="677" y="190" width="120" height="60" as="geometry" />
        </mxCell>
        <mxCell id="44lf9Ctf_OpmYabO1S7V-39" value="encoder" style="rounded=1;whiteSpace=wrap;html=1;" parent="1" vertex="1">
          <mxGeometry x="687" y="200" width="100" height="40" as="geometry" />
        </mxCell>
        <mxCell id="44lf9Ctf_OpmYabO1S7V-42" value="" style="endArrow=classic;startArrow=classic;html=1;rounded=0;curved=1;" parent="1" edge="1">
          <mxGeometry width="50" height="50" relative="1" as="geometry">
            <mxPoint x="280" y="560" as="sourcePoint" />
            <mxPoint x="730" y="560" as="targetPoint" />
            <Array as="points">
              <mxPoint x="470" y="590" />
            </Array>
          </mxGeometry>
        </mxCell>
        <mxCell id="44lf9Ctf_OpmYabO1S7V-43" value="LOSS计算" style="edgeLabel;html=1;align=center;verticalAlign=middle;resizable=0;points=[];rounded=1;" parent="44lf9Ctf_OpmYabO1S7V-42" vertex="1" connectable="0">
          <mxGeometry x="-0.0495" y="-4" relative="1" as="geometry">
            <mxPoint x="-9" y="-25" as="offset" />
          </mxGeometry>
        </mxCell>
        <mxCell id="44lf9Ctf_OpmYabO1S7V-189" value="" style="shape=image;verticalLabelPosition=bottom;verticalAlign=top;imageAspect=0;aspect=fixed;image=data:image/svg+xml,PHN2ZyB4bWxuczp4bGluaz0iaHR0cDovL3d3dy53My5vcmcvMTk5OS94bGluayIgeG1sbnM9Imh0dHA6Ly93d3cudzMub3JnLzIwMDAvc3ZnIiBoZWlnaHQ9IjIwMCIgd2lkdGg9IjIwMCIgdmVyc2lvbj0iMS4xIiB2aWV3Qm94PSIwIDAgMTAyNCAxMDI0IiBjbGFzcz0iaWNvbiI+PHBhdGggZmlsbD0iIzUxNTE1MSIgY2xhc3M9IiIgZGF0YS1zcG0tYW5jaG9yLWlkPSJhMzEzeC5zZWFyY2hfaW5kZXguMC5pNS42NGYzM2E4MWRtNXMzeCIgZD0iTTM4NS4xNTA4NDkgMzg1LjY2MjMzOGwtMTI4Ljg5NTEwNSAwIDAtMTUwLjM3NzYyMnEwLTQ5LjEwMjg5NyAxOS40MzY1NjMtOTEuNTU2NDQ0dDUzLjcwNjI5NC03NC42NzczMjMgODAuODE1MTg1LTUwLjYzNzM2MyAxMDEuNzg2MjE0LTE4LjQxMzU4NnE0OS4xMDI4OTcgMCA5NC42MjUzNzUgMTguNDEzNTg2dDgwLjgxNTE4NSA1MC42MzczNjMgNTYuMjYzNzM2IDc0LjY3NzMyMyAyMC45NzEwMjkgOTEuNTU2NDQ0bDAgMTUwLjM3NzYyMi0xMjMuNzgwMjIgMCAwLTEyMS43MzQyNjZxMC02NC40NDc1NTItMzUuODA0MTk2LTk5Ljc0MDI2dC05Ny4xODI4MTctMzUuMjkyNzA3cS01NS4yNDA3NTkgMC04OC45OTkwMDEgMzUuMjkyNzA3dC0zMy43NTgyNDIgOTkuNzQwMjZsMCAxMjEuNzM0MjY2ek04MjYuMDUzOTQ2IDQ0Ny4wNDA5NTlxMjcuNjIwMzggMCA0Ny41Njg0MzIgMTkuOTQ4MDUydDE5Ljk0ODA1MiA0Ny41Njg0MzJsMCAzMTcuMTIyODc3cTAgMjcuNjIwMzgtOS43MTgyODIgNTEuNjYwMzR0LTI2LjU5NzQwMyA0MS45NDIwNTgtMzkuODk2MTA0IDI4LjEzMTg2OC01MC42MzczNjMgMTAuMjI5NzdsLTUxNi42MDMzOTcgMHEtMjcuNjIwMzggMC01MC4xMjU4NzQtMTAuMjI5Nzd0LTM4LjM2MTYzOC0yNy4xMDg4OTEtMjQuNTUxNDQ5LTM5LjM4NDYxNS04LjY5NTMwNS00OC4wNzk5MmwwLTMyNC4yODM3MTZxMC0yNy42MjAzOCAxOS40MzY1NjMtNDcuNTY4NDMydDQ3LjA1Njk0My0xOS45NDgwNTJsNjEuMzc4NjIxIDAgMTI4Ljg5NTEwNSAwIDI1NS43NDQyNTYgMCAxMjMuNzgwMjIgMCA2MS4zNzg2MjEgMHoiLz48L3N2Zz4=;rounded=1;" parent="1" vertex="1">
          <mxGeometry x="777" y="230" width="10" height="10" as="geometry" />
        </mxCell>
        <mxCell id="44lf9Ctf_OpmYabO1S7V-190" value="" style="shape=image;verticalLabelPosition=bottom;verticalAlign=top;imageAspect=0;aspect=fixed;image=data:image/svg+xml,PHN2ZyB4bWxuczp4bGluaz0iaHR0cDovL3d3dy53My5vcmcvMTk5OS94bGluayIgeG1sbnM9Imh0dHA6Ly93d3cudzMub3JnLzIwMDAvc3ZnIiBoZWlnaHQ9IjIwMCIgd2lkdGg9IjIwMCIgdmVyc2lvbj0iMS4xIiB2aWV3Qm94PSIwIDAgMTAyNCAxMDI0IiBjbGFzcz0iaWNvbiI+PHBhdGggZmlsbD0iIzUxNTE1MSIgY2xhc3M9IiIgZGF0YS1zcG0tYW5jaG9yLWlkPSJhMzEzeC5zZWFyY2hfaW5kZXguMC5pNS42NGYzM2E4MWRtNXMzeCIgZD0iTTM4NS4xNTA4NDkgMzg1LjY2MjMzOGwtMTI4Ljg5NTEwNSAwIDAtMTUwLjM3NzYyMnEwLTQ5LjEwMjg5NyAxOS40MzY1NjMtOTEuNTU2NDQ0dDUzLjcwNjI5NC03NC42NzczMjMgODAuODE1MTg1LTUwLjYzNzM2MyAxMDEuNzg2MjE0LTE4LjQxMzU4NnE0OS4xMDI4OTcgMCA5NC42MjUzNzUgMTguNDEzNTg2dDgwLjgxNTE4NSA1MC42MzczNjMgNTYuMjYzNzM2IDc0LjY3NzMyMyAyMC45NzEwMjkgOTEuNTU2NDQ0bDAgMTUwLjM3NzYyMi0xMjMuNzgwMjIgMCAwLTEyMS43MzQyNjZxMC02NC40NDc1NTItMzUuODA0MTk2LTk5Ljc0MDI2dC05Ny4xODI4MTctMzUuMjkyNzA3cS01NS4yNDA3NTkgMC04OC45OTkwMDEgMzUuMjkyNzA3dC0zMy43NTgyNDIgOTkuNzQwMjZsMCAxMjEuNzM0MjY2ek04MjYuMDUzOTQ2IDQ0Ny4wNDA5NTlxMjcuNjIwMzggMCA0Ny41Njg0MzIgMTkuOTQ4MDUydDE5Ljk0ODA1MiA0Ny41Njg0MzJsMCAzMTcuMTIyODc3cTAgMjcuNjIwMzgtOS43MTgyODIgNTEuNjYwMzR0LTI2LjU5NzQwMyA0MS45NDIwNTgtMzkuODk2MTA0IDI4LjEzMTg2OC01MC42MzczNjMgMTAuMjI5NzdsLTUxNi42MDMzOTcgMHEtMjcuNjIwMzggMC01MC4xMjU4NzQtMTAuMjI5Nzd0LTM4LjM2MTYzOC0yNy4xMDg4OTEtMjQuNTUxNDQ5LTM5LjM4NDYxNS04LjY5NTMwNS00OC4wNzk5MmwwLTMyNC4yODM3MTZxMC0yNy42MjAzOCAxOS40MzY1NjMtNDcuNTY4NDMydDQ3LjA1Njk0My0xOS45NDgwNTJsNjEuMzc4NjIxIDAgMTI4Ljg5NTEwNSAwIDI1NS43NDQyNTYgMCAxMjMuNzgwMjIgMCA2MS4zNzg2MjEgMHoiLz48L3N2Zz4=;rounded=1;" parent="1" vertex="1">
          <mxGeometry x="322" y="230" width="10" height="10" as="geometry" />
        </mxCell>
        <mxCell id="g2NJb7oJ9SHN01yS4tF3-15" style="edgeStyle=orthogonalEdgeStyle;rounded=0;orthogonalLoop=1;jettySize=auto;html=1;" parent="1" edge="1">
          <mxGeometry relative="1" as="geometry">
            <mxPoint x="359" y="160" as="targetPoint" />
            <mxPoint x="359" y="80" as="sourcePoint" />
          </mxGeometry>
        </mxCell>
        <mxCell id="See0xfNC99VTRr8dp8ZD-2" value="" style="endArrow=classic;startArrow=classic;html=1;rounded=0;entryX=0.483;entryY=-0.022;entryDx=0;entryDy=0;entryPerimeter=0;exitX=0.509;exitY=-0.005;exitDx=0;exitDy=0;exitPerimeter=0;" parent="1" source="44lf9Ctf_OpmYabO1S7V-2" edge="1">
          <mxGeometry width="50" height="50" relative="1" as="geometry">
            <mxPoint x="160" y="170" as="sourcePoint" />
            <mxPoint x="438.96000000000004" y="187.58000000000004" as="targetPoint" />
            <Array as="points">
              <mxPoint x="283" y="160" />
              <mxPoint x="440" y="160" />
            </Array>
          </mxGeometry>
        </mxCell>
        <mxCell id="See0xfNC99VTRr8dp8ZD-4" value="prompt" style="edgeLabel;html=1;align=center;verticalAlign=middle;resizable=0;points=[];" parent="See0xfNC99VTRr8dp8ZD-2" vertex="1" connectable="0">
          <mxGeometry x="0.3587" y="3" relative="1" as="geometry">
            <mxPoint x="1" y="-7" as="offset" />
          </mxGeometry>
        </mxCell>
        <mxCell id="See0xfNC99VTRr8dp8ZD-5" value="no_prompt" style="edgeLabel;html=1;align=center;verticalAlign=middle;resizable=0;points=[];" parent="See0xfNC99VTRr8dp8ZD-2" vertex="1" connectable="0">
          <mxGeometry x="-0.4632" y="1" relative="1" as="geometry">
            <mxPoint x="7" y="-8" as="offset" />
          </mxGeometry>
        </mxCell>
        <mxCell id="atqU_1syBKjracGCEPVl-6" value="prompt" style="edgeLabel;html=1;align=center;verticalAlign=middle;resizable=0;points=[];" parent="See0xfNC99VTRr8dp8ZD-2" vertex="1" connectable="0">
          <mxGeometry x="0.3587" y="3" relative="1" as="geometry">
            <mxPoint x="181" y="-7" as="offset" />
          </mxGeometry>
        </mxCell>
        <mxCell id="g2NJb7oJ9SHN01yS4tF3-1" value="" style="rounded=1;whiteSpace=wrap;html=1;fillColor=#d5e8d4;strokeColor=#82b366;" parent="1" vertex="1">
          <mxGeometry x="380" y="190" width="120" height="150" as="geometry" />
        </mxCell>
        <mxCell id="g2NJb7oJ9SHN01yS4tF3-2" value="" style="edgeStyle=orthogonalEdgeStyle;rounded=1;orthogonalLoop=1;jettySize=auto;html=1;" parent="1" source="g2NJb7oJ9SHN01yS4tF3-3" edge="1">
          <mxGeometry relative="1" as="geometry">
            <mxPoint x="441" y="419" as="targetPoint" />
          </mxGeometry>
        </mxCell>
        <mxCell id="g2NJb7oJ9SHN01yS4tF3-3" value="p" style="rounded=1;whiteSpace=wrap;html=1;fillColor=#dae8fc;strokeColor=#6c8ebf;" parent="1" vertex="1">
          <mxGeometry x="421" y="380" width="41" height="19" as="geometry" />
        </mxCell>
        <mxCell id="g2NJb7oJ9SHN01yS4tF3-6" value="zi" style="whiteSpace=wrap;html=1;fillColor=#dae8fc;strokeColor=#6c8ebf;rounded=1;" parent="1" vertex="1">
          <mxGeometry x="421" y="420" width="40" height="30" as="geometry" />
        </mxCell>
        <mxCell id="g2NJb7oJ9SHN01yS4tF3-7" value="encoder" style="rounded=1;whiteSpace=wrap;html=1;" parent="1" vertex="1">
          <mxGeometry x="390" y="200" width="100" height="40" as="geometry" />
        </mxCell>
        <mxCell id="g2NJb7oJ9SHN01yS4tF3-8" value="" style="shape=image;verticalLabelPosition=bottom;verticalAlign=top;imageAspect=0;aspect=fixed;image=data:image/svg+xml,PHN2ZyB4bWxuczp4bGluaz0iaHR0cDovL3d3dy53My5vcmcvMTk5OS94bGluayIgeG1sbnM9Imh0dHA6Ly93d3cudzMub3JnLzIwMDAvc3ZnIiBoZWlnaHQ9IjIwMCIgd2lkdGg9IjIwMCIgdmVyc2lvbj0iMS4xIiB2aWV3Qm94PSIwIDAgMTAyNCAxMDI0IiBjbGFzcz0iaWNvbiI+PHBhdGggZmlsbD0iIzUxNTE1MSIgY2xhc3M9IiIgZGF0YS1zcG0tYW5jaG9yLWlkPSJhMzEzeC5zZWFyY2hfaW5kZXguMC5pNS42NGYzM2E4MWRtNXMzeCIgZD0iTTM4NS4xNTA4NDkgMzg1LjY2MjMzOGwtMTI4Ljg5NTEwNSAwIDAtMTUwLjM3NzYyMnEwLTQ5LjEwMjg5NyAxOS40MzY1NjMtOTEuNTU2NDQ0dDUzLjcwNjI5NC03NC42NzczMjMgODAuODE1MTg1LTUwLjYzNzM2MyAxMDEuNzg2MjE0LTE4LjQxMzU4NnE0OS4xMDI4OTcgMCA5NC42MjUzNzUgMTguNDEzNTg2dDgwLjgxNTE4NSA1MC42MzczNjMgNTYuMjYzNzM2IDc0LjY3NzMyMyAyMC45NzEwMjkgOTEuNTU2NDQ0bDAgMTUwLjM3NzYyMi0xMjMuNzgwMjIgMCAwLTEyMS43MzQyNjZxMC02NC40NDc1NTItMzUuODA0MTk2LTk5Ljc0MDI2dC05Ny4xODI4MTctMzUuMjkyNzA3cS01NS4yNDA3NTkgMC04OC45OTkwMDEgMzUuMjkyNzA3dC0zMy43NTgyNDIgOTkuNzQwMjZsMCAxMjEuNzM0MjY2ek04MjYuMDUzOTQ2IDQ0Ny4wNDA5NTlxMjcuNjIwMzggMCA0Ny41Njg0MzIgMTkuOTQ4MDUydDE5Ljk0ODA1MiA0Ny41Njg0MzJsMCAzMTcuMTIyODc3cTAgMjcuNjIwMzgtOS43MTgyODIgNTEuNjYwMzR0LTI2LjU5NzQwMyA0MS45NDIwNTgtMzkuODk2MTA0IDI4LjEzMTg2OC01MC42MzczNjMgMTAuMjI5NzdsLTUxNi42MDMzOTcgMHEtMjcuNjIwMzggMC01MC4xMjU4NzQtMTAuMjI5Nzd0LTM4LjM2MTYzOC0yNy4xMDg4OTEtMjQuNTUxNDQ5LTM5LjM4NDYxNS04LjY5NTMwNS00OC4wNzk5MmwwLTMyNC4yODM3MTZxMC0yNy42MjAzOCAxOS40MzY1NjMtNDcuNTY4NDMydDQ3LjA1Njk0My0xOS45NDgwNTJsNjEuMzc4NjIxIDAgMTI4Ljg5NTEwNSAwIDI1NS43NDQyNTYgMCAxMjMuNzgwMjIgMCA2MS4zNzg2MjEgMHoiLz48L3N2Zz4=;rounded=1;" parent="1" vertex="1">
          <mxGeometry x="480" y="230" width="10" height="10" as="geometry" />
        </mxCell>
        <mxCell id="g2NJb7oJ9SHN01yS4tF3-9" value="adapter&lt;br&gt;prompt" style="rounded=1;whiteSpace=wrap;html=1;" parent="1" vertex="1">
          <mxGeometry x="393" y="275" width="100" height="50" as="geometry" />
        </mxCell>
        <mxCell id="g2NJb7oJ9SHN01yS4tF3-10" style="edgeStyle=orthogonalEdgeStyle;rounded=0;orthogonalLoop=1;jettySize=auto;html=1;entryX=0.472;entryY=0.015;entryDx=0;entryDy=0;entryPerimeter=0;" parent="1" source="g2NJb7oJ9SHN01yS4tF3-7" target="g2NJb7oJ9SHN01yS4tF3-9" edge="1">
          <mxGeometry relative="1" as="geometry" />
        </mxCell>
        <mxCell id="g2NJb7oJ9SHN01yS4tF3-13" style="edgeStyle=orthogonalEdgeStyle;rounded=0;orthogonalLoop=1;jettySize=auto;html=1;entryX=0.476;entryY=0.049;entryDx=0;entryDy=0;entryPerimeter=0;" parent="1" source="g2NJb7oJ9SHN01yS4tF3-9" target="g2NJb7oJ9SHN01yS4tF3-3" edge="1">
          <mxGeometry relative="1" as="geometry">
            <Array as="points">
              <mxPoint x="441" y="340" />
              <mxPoint x="440" y="340" />
            </Array>
          </mxGeometry>
        </mxCell>
        <mxCell id="g2NJb7oJ9SHN01yS4tF3-22" style="edgeStyle=orthogonalEdgeStyle;rounded=0;orthogonalLoop=1;jettySize=auto;html=1;" parent="1" source="g2NJb7oJ9SHN01yS4tF3-16" edge="1">
          <mxGeometry relative="1" as="geometry">
            <mxPoint x="600" y="550" as="targetPoint" />
          </mxGeometry>
        </mxCell>
        <mxCell id="g2NJb7oJ9SHN01yS4tF3-16" value="" style="rounded=1;whiteSpace=wrap;html=1;fillColor=#d5e8d4;strokeColor=#82b366;" parent="1" vertex="1">
          <mxGeometry x="540" y="190" width="120" height="60" as="geometry" />
        </mxCell>
        <mxCell id="g2NJb7oJ9SHN01yS4tF3-17" value="encoder" style="rounded=1;whiteSpace=wrap;html=1;" parent="1" vertex="1">
          <mxGeometry x="550" y="200" width="100" height="40" as="geometry" />
        </mxCell>
        <mxCell id="g2NJb7oJ9SHN01yS4tF3-18" value="" style="shape=image;verticalLabelPosition=bottom;verticalAlign=top;imageAspect=0;aspect=fixed;image=data:image/svg+xml,PHN2ZyB4bWxuczp4bGluaz0iaHR0cDovL3d3dy53My5vcmcvMTk5OS94bGluayIgeG1sbnM9Imh0dHA6Ly93d3cudzMub3JnLzIwMDAvc3ZnIiBoZWlnaHQ9IjIwMCIgd2lkdGg9IjIwMCIgdmVyc2lvbj0iMS4xIiB2aWV3Qm94PSIwIDAgMTAyNCAxMDI0IiBjbGFzcz0iaWNvbiI+PHBhdGggZmlsbD0iIzUxNTE1MSIgY2xhc3M9IiIgZGF0YS1zcG0tYW5jaG9yLWlkPSJhMzEzeC5zZWFyY2hfaW5kZXguMC5pNS42NGYzM2E4MWRtNXMzeCIgZD0iTTM4NS4xNTA4NDkgMzg1LjY2MjMzOGwtMTI4Ljg5NTEwNSAwIDAtMTUwLjM3NzYyMnEwLTQ5LjEwMjg5NyAxOS40MzY1NjMtOTEuNTU2NDQ0dDUzLjcwNjI5NC03NC42NzczMjMgODAuODE1MTg1LTUwLjYzNzM2MyAxMDEuNzg2MjE0LTE4LjQxMzU4NnE0OS4xMDI4OTcgMCA5NC42MjUzNzUgMTguNDEzNTg2dDgwLjgxNTE4NSA1MC42MzczNjMgNTYuMjYzNzM2IDc0LjY3NzMyMyAyMC45NzEwMjkgOTEuNTU2NDQ0bDAgMTUwLjM3NzYyMi0xMjMuNzgwMjIgMCAwLTEyMS43MzQyNjZxMC02NC40NDc1NTItMzUuODA0MTk2LTk5Ljc0MDI2dC05Ny4xODI4MTctMzUuMjkyNzA3cS01NS4yNDA3NTkgMC04OC45OTkwMDEgMzUuMjkyNzA3dC0zMy43NTgyNDIgOTkuNzQwMjZsMCAxMjEuNzM0MjY2ek04MjYuMDUzOTQ2IDQ0Ny4wNDA5NTlxMjcuNjIwMzggMCA0Ny41Njg0MzIgMTkuOTQ4MDUydDE5Ljk0ODA1MiA0Ny41Njg0MzJsMCAzMTcuMTIyODc3cTAgMjcuNjIwMzgtOS43MTgyODIgNTEuNjYwMzR0LTI2LjU5NzQwMyA0MS45NDIwNTgtMzkuODk2MTA0IDI4LjEzMTg2OC01MC42MzczNjMgMTAuMjI5NzdsLTUxNi42MDMzOTcgMHEtMjcuNjIwMzggMC01MC4xMjU4NzQtMTAuMjI5Nzd0LTM4LjM2MTYzOC0yNy4xMDg4OTEtMjQuNTUxNDQ5LTM5LjM4NDYxNS04LjY5NTMwNS00OC4wNzk5MmwwLTMyNC4yODM3MTZxMC0yNy42MjAzOCAxOS40MzY1NjMtNDcuNTY4NDMydDQ3LjA1Njk0My0xOS45NDgwNTJsNjEuMzc4NjIxIDAgMTI4Ljg5NTEwNSAwIDI1NS43NDQyNTYgMCAxMjMuNzgwMjIgMCA2MS4zNzg2MjEgMHoiLz48L3N2Zz4=;rounded=1;" parent="1" vertex="1">
          <mxGeometry x="640" y="230" width="10" height="10" as="geometry" />
        </mxCell>
        <mxCell id="g2NJb7oJ9SHN01yS4tF3-25" value="" style="curved=1;endArrow=classic;html=1;rounded=0;startArrow=classic;startFill=1;" parent="1" edge="1">
          <mxGeometry width="50" height="50" relative="1" as="geometry">
            <mxPoint x="600" y="540" as="sourcePoint" />
            <mxPoint x="740" y="540" as="targetPoint" />
            <Array as="points">
              <mxPoint x="670" y="560" />
            </Array>
          </mxGeometry>
        </mxCell>
        <mxCell id="g2NJb7oJ9SHN01yS4tF3-42" value="LOSS计算" style="edgeLabel;html=1;align=center;verticalAlign=middle;resizable=0;points=[];" parent="g2NJb7oJ9SHN01yS4tF3-25" vertex="1" connectable="0">
          <mxGeometry x="-0.1047" y="7" relative="1" as="geometry">
            <mxPoint x="3" y="-11" as="offset" />
          </mxGeometry>
        </mxCell>
        <mxCell id="g2NJb7oJ9SHN01yS4tF3-43" style="edgeStyle=orthogonalEdgeStyle;rounded=0;orthogonalLoop=1;jettySize=auto;html=1;entryX=0.978;entryY=0.417;entryDx=0;entryDy=0;entryPerimeter=0;" parent="1" source="g2NJb7oJ9SHN01yS4tF3-6" target="44lf9Ctf_OpmYabO1S7V-20" edge="1">
          <mxGeometry relative="1" as="geometry">
            <Array as="points">
              <mxPoint x="441" y="460" />
              <mxPoint x="360" y="460" />
              <mxPoint x="360" y="272" />
            </Array>
          </mxGeometry>
        </mxCell>
        <mxCell id="g2NJb7oJ9SHN01yS4tF3-44" value="non_linear" style="rounded=1;whiteSpace=wrap;html=1;" parent="1" vertex="1">
          <mxGeometry x="239.5" y="290" width="85" height="30" as="geometry" />
        </mxCell>
        <mxCell id="g2NJb7oJ9SHN01yS4tF3-46" value="" style="endArrow=classic;html=1;rounded=0;exitX=0.476;exitY=0.99;exitDx=0;exitDy=0;exitPerimeter=0;entryX=-0.008;entryY=-0.04;entryDx=0;entryDy=0;entryPerimeter=0;" parent="1" source="44lf9Ctf_OpmYabO1S7V-23" target="44lf9Ctf_OpmYabO1S7V-20" edge="1">
          <mxGeometry width="50" height="50" relative="1" as="geometry">
            <mxPoint x="220" y="450" as="sourcePoint" />
            <mxPoint x="270" y="400" as="targetPoint" />
          </mxGeometry>
        </mxCell>
        <mxCell id="atqU_1syBKjracGCEPVl-2" style="edgeStyle=orthogonalEdgeStyle;rounded=1;orthogonalLoop=1;jettySize=auto;html=1;entryX=0.5;entryY=0;entryDx=0;entryDy=0;" parent="1" edge="1">
          <mxGeometry relative="1" as="geometry">
            <mxPoint x="600" y="90" as="sourcePoint" />
            <mxPoint x="600" y="190" as="targetPoint" />
          </mxGeometry>
        </mxCell>
        <mxCell id="atqU_1syBKjracGCEPVl-3" value="&lt;font style=&quot;font-size: 17px;&quot;&gt;英文&lt;/font&gt;" style="text;html=1;strokeColor=none;fillColor=none;align=center;verticalAlign=middle;whiteSpace=wrap;rounded=1;" parent="1" vertex="1">
          <mxGeometry x="570" y="50" width="60" height="30" as="geometry" />
        </mxCell>
        <mxCell id="atqU_1syBKjracGCEPVl-4" value="" style="endArrow=classic;html=1;rounded=0;exitX=0.997;exitY=0.52;exitDx=0;exitDy=0;exitPerimeter=0;entryX=-0.073;entryY=0.52;entryDx=0;entryDy=0;entryPerimeter=0;" parent="1" source="44lf9Ctf_OpmYabO1S7V-4" target="atqU_1syBKjracGCEPVl-3" edge="1">
          <mxGeometry width="50" height="50" relative="1" as="geometry">
            <mxPoint x="410" y="90" as="sourcePoint" />
            <mxPoint x="460" y="40" as="targetPoint" />
          </mxGeometry>
        </mxCell>
        <mxCell id="atqU_1syBKjracGCEPVl-5" value="回译" style="edgeLabel;html=1;align=center;verticalAlign=middle;resizable=0;points=[];" parent="atqU_1syBKjracGCEPVl-4" vertex="1" connectable="0">
          <mxGeometry x="-0.4889" y="4" relative="1" as="geometry">
            <mxPoint x="26" as="offset" />
          </mxGeometry>
        </mxCell>
        <mxCell id="Jt6-zc2A6p7pggEWe3Tq-1" value="" style="endArrow=classic;html=1;rounded=0;" edge="1" parent="1">
          <mxGeometry width="50" height="50" relative="1" as="geometry">
            <mxPoint x="420" y="150" as="sourcePoint" />
            <mxPoint x="440" y="360" as="targetPoint" />
            <Array as="points">
              <mxPoint x="520" y="150" />
              <mxPoint x="520" y="360" />
            </Array>
          </mxGeometry>
        </mxCell>
        <mxCell id="Jt6-zc2A6p7pggEWe3Tq-9" value="&lt;font style=&quot;font-size: 9px;&quot;&gt;cat&lt;/font&gt;" style="text;html=1;strokeColor=none;fillColor=none;align=center;verticalAlign=middle;whiteSpace=wrap;rounded=0;" vertex="1" parent="1">
          <mxGeometry x="440" y="341" width="20" height="15" as="geometry" />
        </mxCell>
        <mxCell id="Jt6-zc2A6p7pggEWe3Tq-22" value="" style="rounded=1;whiteSpace=wrap;html=1;" vertex="1" parent="1">
          <mxGeometry x="1045" y="100" width="100" height="110" as="geometry" />
        </mxCell>
        <mxCell id="Jt6-zc2A6p7pggEWe3Tq-23" value="Router" style="rounded=0;whiteSpace=wrap;html=1;" vertex="1" parent="1">
          <mxGeometry x="1061.5" y="112" width="65" height="26" as="geometry" />
        </mxCell>
        <mxCell id="Jt6-zc2A6p7pggEWe3Tq-24" value="" style="rounded=0;whiteSpace=wrap;html=1;" vertex="1" parent="1">
          <mxGeometry x="1055" y="157" width="20" height="40" as="geometry" />
        </mxCell>
        <mxCell id="Jt6-zc2A6p7pggEWe3Tq-25" value="" style="rounded=0;whiteSpace=wrap;html=1;" vertex="1" parent="1">
          <mxGeometry x="1075" y="157" width="20" height="40" as="geometry" />
        </mxCell>
        <mxCell id="Jt6-zc2A6p7pggEWe3Tq-26" value="" style="rounded=0;whiteSpace=wrap;html=1;" vertex="1" parent="1">
          <mxGeometry x="1095" y="157" width="20" height="40" as="geometry" />
        </mxCell>
        <mxCell id="Jt6-zc2A6p7pggEWe3Tq-27" value="" style="rounded=0;whiteSpace=wrap;html=1;" vertex="1" parent="1">
          <mxGeometry x="1115" y="157" width="20" height="40" as="geometry" />
        </mxCell>
        <mxCell id="Jt6-zc2A6p7pggEWe3Tq-28" style="edgeStyle=orthogonalEdgeStyle;rounded=0;orthogonalLoop=1;jettySize=auto;html=1;entryX=0.49;entryY=0.045;entryDx=0;entryDy=0;entryPerimeter=0;" edge="1" parent="1" source="Jt6-zc2A6p7pggEWe3Tq-23" target="Jt6-zc2A6p7pggEWe3Tq-27">
          <mxGeometry relative="1" as="geometry">
            <Array as="points">
              <mxPoint x="1093" y="148" />
              <mxPoint x="1125" y="148" />
            </Array>
          </mxGeometry>
        </mxCell>
        <mxCell id="Jt6-zc2A6p7pggEWe3Tq-29" value="" style="endArrow=classic;html=1;rounded=0;entryX=0.455;entryY=0.083;entryDx=0;entryDy=0;entryPerimeter=0;" edge="1" parent="1">
          <mxGeometry width="50" height="50" relative="1" as="geometry">
            <mxPoint x="1092" y="80" as="sourcePoint" />
            <mxPoint x="1092.05" y="109.96000000000004" as="targetPoint" />
          </mxGeometry>
        </mxCell>
        <mxCell id="Jt6-zc2A6p7pggEWe3Tq-30" value="" style="endArrow=classic;html=1;rounded=0;" edge="1" parent="1">
          <mxGeometry width="50" height="50" relative="1" as="geometry">
            <mxPoint x="1094" y="210" as="sourcePoint" />
            <mxPoint x="1094" y="250" as="targetPoint" />
          </mxGeometry>
        </mxCell>
        <mxCell id="Jt6-zc2A6p7pggEWe3Tq-31" value="语言专属的prompt" style="text;html=1;strokeColor=none;fillColor=none;align=center;verticalAlign=middle;whiteSpace=wrap;rounded=0;" vertex="1" parent="1">
          <mxGeometry x="1155" y="110" width="60" height="50" as="geometry" />
        </mxCell>
        <mxCell id="Jt6-zc2A6p7pggEWe3Tq-32" value="shared prompt" style="rounded=1;whiteSpace=wrap;html=1;" vertex="1" parent="1">
          <mxGeometry x="908" y="250" width="80" height="30" as="geometry" />
        </mxCell>
        <mxCell id="Jt6-zc2A6p7pggEWe3Tq-33" value="language 专属prompt" style="rounded=1;whiteSpace=wrap;html=1;" vertex="1" parent="1">
          <mxGeometry x="1038" y="250" width="120" height="30" as="geometry" />
        </mxCell>
        <mxCell id="Jt6-zc2A6p7pggEWe3Tq-34" value="concat" style="text;html=1;strokeColor=none;fillColor=none;align=center;verticalAlign=middle;whiteSpace=wrap;rounded=0;" vertex="1" parent="1">
          <mxGeometry x="984" y="250" width="60" height="30" as="geometry" />
        </mxCell>
        <mxCell id="Jt6-zc2A6p7pggEWe3Tq-35" value="" style="endArrow=none;html=1;rounded=0;" edge="1" parent="1">
          <mxGeometry width="50" height="50" relative="1" as="geometry">
            <mxPoint x="858" y="340" as="sourcePoint" />
            <mxPoint x="908" y="290" as="targetPoint" />
          </mxGeometry>
        </mxCell>
        <mxCell id="Jt6-zc2A6p7pggEWe3Tq-36" value="" style="endArrow=none;html=1;rounded=0;" edge="1" parent="1">
          <mxGeometry width="50" height="50" relative="1" as="geometry">
            <mxPoint x="988" y="290" as="sourcePoint" />
            <mxPoint x="1028" y="340" as="targetPoint" />
          </mxGeometry>
        </mxCell>
        <mxCell id="Jt6-zc2A6p7pggEWe3Tq-37" value="shared prompt" style="rounded=1;whiteSpace=wrap;html=1;" vertex="1" parent="1">
          <mxGeometry x="818" y="360" width="80" height="30" as="geometry" />
        </mxCell>
        <mxCell id="Jt6-zc2A6p7pggEWe3Tq-38" value="" style="endArrow=classic;html=1;rounded=0;exitX=1.012;exitY=0.561;exitDx=0;exitDy=0;exitPerimeter=0;" edge="1" parent="1">
          <mxGeometry width="50" height="50" relative="1" as="geometry">
            <mxPoint x="898.96" y="374.8299999999999" as="sourcePoint" />
            <mxPoint x="938" y="375" as="targetPoint" />
          </mxGeometry>
        </mxCell>
        <mxCell id="Jt6-zc2A6p7pggEWe3Tq-39" value="MLP" style="rounded=1;whiteSpace=wrap;html=1;" vertex="1" parent="1">
          <mxGeometry x="938" y="360" width="50" height="30" as="geometry" />
        </mxCell>
        <mxCell id="Jt6-zc2A6p7pggEWe3Tq-40" value="" style="endArrow=classic;html=1;rounded=0;exitX=1.012;exitY=0.561;exitDx=0;exitDy=0;exitPerimeter=0;" edge="1" parent="1">
          <mxGeometry width="50" height="50" relative="1" as="geometry">
            <mxPoint x="988" y="375.99999999999994" as="sourcePoint" />
            <mxPoint x="1027.04" y="376.17" as="targetPoint" />
          </mxGeometry>
        </mxCell>
        <mxCell id="Jt6-zc2A6p7pggEWe3Tq-41" value="shared prompt" style="rounded=1;whiteSpace=wrap;html=1;" vertex="1" parent="1">
          <mxGeometry x="1028" y="360" width="80" height="30" as="geometry" />
        </mxCell>
        <mxCell id="Jt6-zc2A6p7pggEWe3Tq-42" value="" style="endArrow=classic;html=1;rounded=0;entryX=0.447;entryY=0.059;entryDx=0;entryDy=0;entryPerimeter=0;" edge="1" parent="1" target="Jt6-zc2A6p7pggEWe3Tq-43">
          <mxGeometry width="50" height="50" relative="1" as="geometry">
            <mxPoint x="913" y="375" as="sourcePoint" />
            <mxPoint x="1008" y="360" as="targetPoint" />
            <Array as="points">
              <mxPoint x="913" y="340" />
              <mxPoint x="1008" y="340" />
            </Array>
          </mxGeometry>
        </mxCell>
        <mxCell id="Jt6-zc2A6p7pggEWe3Tq-43" value="+" style="ellipse;whiteSpace=wrap;html=1;aspect=fixed;" vertex="1" parent="1">
          <mxGeometry x="1001" y="368" width="14" height="14" as="geometry" />
        </mxCell>
      </root>
    </mxGraphModel>
  </diagram>
</mxfile>
